<mxfile host="app.diagrams.net" modified="2023-05-01T23:01:10.922Z" agent="Mozilla/5.0 (Macintosh; Intel Mac OS X 10_15_7) AppleWebKit/537.36 (KHTML, like Gecko) Chrome/112.0.0.0 Safari/537.36" version="21.2.2" etag="0ZcFENcUzSMfDfUg9m_1" type="github">
  <diagram name="Page-1" id="za1TShl-4mcU_0A_Vvy9">
    <mxGraphModel>
      <root>
        <mxCell id="0" />
        <mxCell id="1" parent="0" />
      </root>
    </mxGraphModel>
  </diagram>
</mxfile>
